<?xml version="1.0" encoding="UTF-8" standalone="no"?>
<!-- Created with Inkscape (http://www.inkscape.org/) -->

<svg
   width="28.063501mm"
   height="32.510597mm"
   viewBox="0 0 28.063501 32.510597"
   version="1.1"
   id="svg1"
   xml:space="preserve"
   xmlns:inkscape="http://www.inkscape.org/namespaces/inkscape"
   xmlns:sodipodi="http://sodipodi.sourceforge.net/DTD/sodipodi-0.dtd"
   xmlns="http://www.w3.org/2000/svg"
   xmlns:svg="http://www.w3.org/2000/svg"><sodipodi:namedview
     id="namedview1"
     pagecolor="#ffffff"
     bordercolor="#000000"
     borderopacity="0.25"
     inkscape:showpageshadow="2"
     inkscape:pageopacity="0.0"
     inkscape:pagecheckerboard="0"
     inkscape:deskcolor="#d1d1d1"
     inkscape:document-units="mm"><inkscape:page
       x="1.6028933e-15"
       y="0"
       width="28.063499"
       height="32.510597"
       id="page2"
       margin="0"
       bleed="0" /></sodipodi:namedview><defs
     id="defs1" /><g
     inkscape:label="Layer 1"
     inkscape:groupmode="layer"
     id="layer1"
     transform="translate(-119.44162,-215.63699)"><g
       id="g16"
       transform="matrix(0.26458333,0,0,0.26458333,119.44209,215.63607)"
       inkscape:export-filename="apple.svg"
       inkscape:export-xdpi="96"
       inkscape:export-ydpi="96"><path
         class="st0"
         d="M 41.57,31.85 C 7.85,21.26 -10.8,60.03 6.67,90.74 c 5.23,9.19 11.57,18.65 21.4,27.25 9.35,6.7 17.58,5.78 25.19,1.63 6.05,2.87 12.45,4.01 19.33,1.43 10.11,-3.8 20.41,-18.8 25.26,-28.07 10.6,-20.27 14.2,-46.28 -9.44,-58.96 -6.45,-3.46 -14.52,-4.47 -24.74,-2.18 -6.8,2.34 -15.25,2.1 -22.1,0.01 z"
         id="path14"
         style="fill:#ffffff;fill-opacity:1" /><path
         class="st1"
         d="m 33.99,28.12 c 5.16,0.64 10.71,-0.55 16.69,-3.75 l 1.14,-5.83 C 45.3,7.04 34.29,1.09 16.17,3.86 L 9.05,4.61 c 5.21,10.83 11.64,21.88 24.94,23.51 z"
         id="path15"
         style="fill:#ffffff;fill-opacity:1" /><path
         class="st3"
         d="m 50.08,25.82 0.07,-0.04 c -0.34,2.54 -0.49,4.89 -0.46,7.69 L 56,33.6 C 55.93,28.27 56.62,23.73 57.99,19.54 59.82,13.96 62.91,9.31 67.06,5.47 68.34,4.29 68.42,2.3 67.25,1.02 66.07,-0.26 64.08,-0.34 62.8,0.83 57.85,5.4 54.19,10.93 52,17.59 c -0.28,0.86 -0.55,1.75 -0.78,2.65 l -0.04,-0.07 z"
         id="path16"
         style="fill:#ffffff;fill-opacity:1" /></g></g><style
     type="text/css"
     id="style1">.st0{fill-rule:evenodd;clip-rule:evenodd;fill:#D3141B;} .st1{fill-rule:evenodd;clip-rule:evenodd;fill:#7DB820;} .st2{fill-rule:evenodd;clip-rule:evenodd;fill:#537918;} .st3{fill-rule:evenodd;clip-rule:evenodd;fill:#543429;} .st4{fill-rule:evenodd;clip-rule:evenodd;fill:#FFFFFF;}</style></svg>
