<svg xmlns="http://www.w3.org/2000/svg" version="1.1" xmlns:xlink="http://www.w3.org/1999/xlink" width="512" height="512"><svg width="512" height="512" viewBox="0 0 719.53152 476.16" fill="#99eedf" version="1.1" id="SvgjsSvg1037" sodipodi:docname="icon.svg" inkscape:version="1.3.2 (091e20e, 2023-11-25)" inkscape:export-filename="icon-play.png" inkscape:export-xdpi="96" inkscape:export-ydpi="96" xmlns:inkscape="http://www.inkscape.org/namespaces/inkscape" xmlns:sodipodi="http://sodipodi.sourceforge.net/DTD/sodipodi-0.dtd" xmlns="http://www.w3.org/2000/svg" xmlns:svg="http://www.w3.org/2000/svg">
  <defs id="SvgjsDefs1036"></defs>
  <sodipodi:namedview id="SvgjsSodipodi:namedview1035" page="#ffffff" bordercolor="#000000" borderopacity="0.25" inkscape:showpageshadow="2" inkscape:pageopacity="0.0" inkscape:pagecheckerboard="0" inkscape:deskcolor="#d1d1d1" showgrid="false" inkscape:zoom="0.70710678" inkscape:cx="180.31223" inkscape:cy="510.5311" inkscape:window-width="1392" inkscape:window-height="1027" inkscape:window-x="2" inkscape:window-y="25" inkscape:window-maximized="0" inkscape:current-layer="svg27" pagecolor="#ffffff" inkscape:export-bgcolor="#ffffffff">
    <inkscape:grid id="SvgjsInkscape:grid1034" units="px" originx="0" originy="0" spacingx="1.405335" spacingy="0.93" empcolor="#0099e5" empopacity="0.30196078" color="#0099e5" opacity="0.14901961" empspacing="5" dotted="false" gridanglex="30" gridanglez="30" visible="false"></inkscape:grid>
  </sodipodi:namedview>
  <path d="m 339.46023,520.29773 c -60.39463,0 -118.65769,-27.36117 -158.44708,-78.38602 C 149.75004,401.97923 122.03957,367.96258 98.592266,339.862 72.302845,308.80332 60.934435,268.13132 67.329175,227.45933 c 6.39472,-40.672 29.13151,-76.16751 63.947215,-96.8733 v 0 L 408.38113,-37.278419 c 37.65782,-22.924226 83.13143,-24.403201 122.2103,-5.915926 39.07888,19.226764 66.78936,56.940803 73.8946,101.310268 l 35.52626,224.805157 c 9.23682,58.41985 -18.47365,116.10017 -68.92093,143.46135 -36.23678,19.96618 -85.26299,44.36938 -144.9471,73.20948 -27.71048,14.05035 -57.55251,20.70582 -86.68403,20.70582 z M 144.77638,155.72872 c -26.99995,16.26882 -44.76308,43.62991 -49.736745,75.42806 -4.97369,31.79812 4.263141,64.33572 24.868365,87.9994 24.15785,28.10069 51.86832,62.85675 83.13142,102.78923 51.15779,65.0752 137.84184,85.78102 211.02592,50.28533 58.97357,-28.84011 107.28927,-53.24331 143.52604,-73.20949 39.78941,-21.44534 61.10516,-66.55413 53.99991,-112.40268 L 576.06504,61.81337 c -5.6842,-35.495561 -26.99995,-64.335712 -57.55253,-79.125525 -31.2631,-15.529314 -66.07882,-13.310839 -95.92088,4.436937 z" id="SvgjsPath1033" style="fill:#ff7f2a;stroke:#ff7f2a;stroke-opacity:1;stroke-width:15.89714963;stroke-dasharray:none" inkscape:label="path25"></path>
  <rect style="fill:#ffffff;fill-opacity:0;stroke-width:63.2401" id="SvgjsRect1032" width="719.53149" height="719.53149" x="-9.3150705e-09" y="-125.66064"></rect>
</svg><style>@media (prefers-color-scheme: light) { :root { filter: none; } }
@media (prefers-color-scheme: dark) { :root { filter: none; } }
</style></svg>