<?xml version="1.0" encoding="UTF-8" standalone="no"?>
<svg
   width="360"
   height="60"
   viewBox="0 0 505.92005 55.8"
   fill="#99eedf"
   version="1.1"
   id="svg27"
   sodipodi:docname="pmLogoWhite.svg"
   inkscape:version="1.3.2 (091e20e, 2023-11-25)"
   xmlns:inkscape="http://www.inkscape.org/namespaces/inkscape"
   xmlns:sodipodi="http://sodipodi.sourceforge.net/DTD/sodipodi-0.dtd"
   xmlns="http://www.w3.org/2000/svg"
   xmlns:svg="http://www.w3.org/2000/svg">
  <sodipodi:namedview
     id="namedview1"
     pagecolor="#ffffff"
     bordercolor="#000000"
     borderopacity="0.25"
     inkscape:showpageshadow="2"
     inkscape:pageopacity="0.0"
     inkscape:pagecheckerboard="0"
     inkscape:deskcolor="#d1d1d1"
     inkscape:zoom="1.4333333"
     inkscape:cx="180"
     inkscape:cy="29.651163"
     inkscape:window-width="2400"
     inkscape:window-height="1250"
     inkscape:window-x="0"
     inkscape:window-y="25"
     inkscape:window-maximized="0"
     inkscape:current-layer="layer1" />
  <defs
     id="defs31">
    <clipPath
       clipPathUnits="userSpaceOnUse"
       id="clipPath4">
      <rect
         style="fill:none;stroke-width:1.40533"
         id="rect5"
         width="496.36383"
         height="83.062157"
         x="5.0419412"
         y="5.3085256"
         ry="26.729925" />
    </clipPath>
  </defs>
  <g
     id="layer1"
     style="image-rendering:crisp-edges">
    <rect
       style="fill:none;fill-opacity:1;stroke:none;stroke-width:1.40533;stroke-opacity:1;image-rendering:crisp-edges"
       id="rect2"
       width="517.85883"
       height="82.676361"
       x="3.6343992"
       y="4.739397"
       ry="26.729925"
       clip-path="none"
       rx="0" />
    <path
       id="text245"
       clip-path="url(#clipPath4)"
       style="font-style:normal;font-variant:normal;font-weight:normal;font-stretch:normal;font-size:59.52px;font-family:Arial;-inkscape-font-specification:'Arial, Normal';font-variant-ligatures:normal;font-variant-caps:normal;font-variant-numeric:normal;font-variant-east-asian:normal;fill:#f9f9f9;fill-opacity:1;stroke-width:0.31"
       d="m 317.32785,20.867748 c -0.87296,0 -1.58542,0.276153 -2.14094,0.831672 -0.55552,0.55552 -0.83442,1.270724 -0.83442,2.143683 v 8.571985 h -2.73655 c -0.83328,0 -1.50982,0.237487 -2.02566,0.713646 -0.51584,0.47616 -0.77403,1.111286 -0.77403,1.904886 0,0.714239 0.25819,1.307955 0.77403,1.784114 0.51584,0.47616 1.19238,0.716391 2.02566,0.716391 h 2.73655 v 14.701106 c 0,2.182398 0.45702,4.14715 1.36966,5.893068 0.91263,1.745918 2.16218,3.13217 3.74938,4.163849 1.5872,0.991999 3.37384,1.490422 5.35784,1.490422 h 1.07046 c 1.03168,0 1.86563,-0.278897 2.50051,-0.834416 0.67456,-0.55552 1.01008,-1.270724 1.01008,-2.143683 0,-0.872959 -0.25819,-1.585418 -0.77403,-2.140938 -0.47616,-0.555519 -1.06987,-0.834416 -1.78411,-0.834416 h -2.02291 c -1.26976,0 -2.3412,-0.534345 -3.21416,-1.605704 -0.87296,-1.071359 -1.30926,-2.400984 -1.30926,-3.988182 V 37.534125 h 5.05865 c 0.83328,0 1.50707,-0.240231 2.02291,-0.716391 0.51584,-0.476159 0.77403,-1.069875 0.77403,-1.784114 0,-0.7936 -0.25819,-1.428726 -0.77403,-1.904886 -0.51584,-0.476159 -1.18963,-0.713646 -2.02291,-0.713646 h -5.05865 v -8.571985 c 0,-0.872959 -0.2789,-1.588163 -0.83442,-2.143683 -0.55552,-0.555519 -1.27072,-0.831672 -2.14368,-0.831672 z m -162.84576,9.999277 c -2.3808,0 -4.56233,0.55505 -6.54633,1.666089 -1.33556,0.747914 -2.47701,1.692153 -3.45295,2.799688 v -1.133599 c 0,-0.991999 -0.25819,-1.725164 -0.77403,-2.201323 -0.47616,-0.51584 -1.20932,-0.774032 -2.20132,-0.774032 -0.95232,0 -1.68549,0.258192 -2.20133,0.774032 -0.51584,0.515839 -0.77403,1.249004 -0.77403,2.201323 v 26.605268 c 0,0.991999 0.25819,1.745869 0.77403,2.261709 0.51584,0.476159 1.24901,0.71639 2.20133,0.71639 0.992,0 1.72516,-0.258191 2.20132,-0.774031 0.51584,-0.515839 0.77403,-1.251749 0.77403,-2.204068 V 43.424449 c 0,-1.825279 0.57576,-3.333019 1.72648,-4.523418 1.19039,-1.190398 2.79617,-2.00364 4.81985,-2.44012 2.02368,-0.436479 4.30599,-0.395068 6.84551,0.120771 0.51584,0.11904 0.99356,0.137001 1.43004,0.05764 0.43648,-0.07936 0.81341,-0.257475 1.13085,-0.535234 0.35712,-0.31744 0.59461,-0.753747 0.71365,-1.309266 0.27776,-1.071359 -0.17925,-1.982639 -1.36965,-2.736558 -1.15072,-0.793599 -2.91665,-1.19124 -5.29745,-1.19124 z m 145.52612,0 c -2.3808,0 -4.56233,0.55505 -6.54633,1.666089 -1.33556,0.747914 -2.47701,1.692153 -3.45295,2.799688 v -1.133599 c 0,-0.991999 -0.25819,-1.725164 -0.77403,-2.201323 -0.47616,-0.51584 -1.20932,-0.774032 -2.20132,-0.774032 -0.95232,0 -1.68548,0.258192 -2.20132,0.774032 -0.51584,0.515839 -0.77403,1.249004 -0.77403,2.201323 v 26.605268 c 0,0.991999 0.25819,1.745869 0.77403,2.261709 0.51584,0.476159 1.249,0.71639 2.20132,0.71639 0.992,0 1.72516,-0.258191 2.20132,-0.774031 0.51584,-0.515839 0.77403,-1.251749 0.77403,-2.204068 V 43.424449 c 0,-1.825279 0.57576,-3.333019 1.72648,-4.523418 1.1904,-1.190398 2.79618,-2.00364 4.81985,-2.44012 2.02368,-0.436479 4.306,-0.395068 6.84551,0.120771 0.51584,0.11904 0.99356,0.137001 1.43004,0.05764 0.43648,-0.07936 0.81342,-0.257475 1.13086,-0.535234 0.35712,-0.31744 0.5946,-0.753747 0.71364,-1.309266 0.27776,-1.071359 -0.17925,-1.982639 -1.36965,-2.736558 -1.15072,-0.793599 -2.91665,-1.19124 -5.29745,-1.19124 z m 83.32914,0.06039 c -2.34112,0 -4.42461,0.55505 -6.24989,1.666089 -0.77462,0.471508 -1.46259,1.037358 -2.09428,1.666088 -0.0133,-0.881749 -0.28152,-1.601771 -0.82343,-2.143682 -0.55552,-0.55552 -1.28869,-0.831672 -2.20133,-0.831672 -0.87296,0 -1.60612,0.276152 -2.20132,0.831672 -0.55552,0.555519 -0.83442,1.291429 -0.83442,2.204068 v 26.484497 c 0,0.872959 0.2789,1.608869 0.83442,2.204068 0.5952,0.55552 1.32836,0.831672 2.20132,0.831672 0.91264,0 1.64581,-0.276152 2.20133,-0.831672 0.55551,-0.595199 0.83441,-1.331109 0.83441,-2.204068 V 44.020068 c 0,-2.222077 0.6738,-4.047381 2.02291,-5.475859 1.34912,-1.428479 3.05568,-2.140938 5.11904,-2.140938 1.984,0 3.58978,0.614421 4.81986,1.8445 1.23007,1.190399 1.84724,3.036408 1.84724,5.536245 v 17.020455 c 0,0.872959 0.27615,1.608869 0.83167,2.204068 0.5952,0.55552 1.33111,0.831672 2.20407,0.831672 0.91264,0 1.6458,-0.276152 2.20132,-0.831672 0.55552,-0.595199 0.83168,-1.331109 0.83168,-2.204068 V 44.020068 c 0,-2.222077 0.65583,-4.047381 1.96527,-5.475859 1.34911,-1.428479 3.05568,-2.140938 5.11903,-2.140938 1.984,0 3.58978,0.614421 4.81986,1.8445 1.23008,1.190399 1.84724,3.036408 1.84724,5.536245 v 17.020455 c 0,0.872959 0.27616,1.608869 0.83167,2.204068 0.5952,0.55552 1.33111,0.831672 2.20407,0.831672 0.91264,0 1.64581,-0.276152 2.20133,-0.831672 0.55552,-0.595199 0.83167,-1.331109 0.83167,-2.204068 V 43.784016 c 0,-2.737917 -0.49568,-5.061643 -1.48768,-6.966282 -0.95232,-1.944318 -2.2999,-3.410647 -4.04582,-4.402646 -1.74592,-0.991999 -3.74934,-1.487677 -6.0111,-1.487677 -2.57919,0 -4.88222,0.55505 -6.90589,1.666089 -1.40475,0.786659 -2.57916,1.803214 -3.54627,3.027505 -0.87959,-1.356082 -1.993,-2.430984 -3.35689,-3.205917 -1.74591,-0.991999 -3.74933,-1.487677 -6.01109,-1.487677 z m -270.27966,0.05764 c -3.09504,0 -5.87303,0.735909 -8.33319,2.204067 -2.46016,1.428479 -4.4042,3.390486 -5.832683,5.890324 -1.428479,2.499837 -2.164388,5.319242 -2.204068,8.453959 v 27.140503 c 0,0.872959 0.278897,1.588163 0.834417,2.143682 0.595199,0.5952 1.328364,0.892058 2.201323,0.892058 0.912641,0 1.648551,-0.296858 2.204071,-0.892058 0.55552,-0.555519 0.83167,-1.270723 0.83167,-2.143682 v -16.07076 c 1.3888,1.666558 3.05669,2.996184 5.00101,3.988183 1.984,0.952319 4.14483,1.427292 6.48594,1.427292 2.89664,0 5.49652,-0.71246 7.79796,-2.140938 2.30143,-1.468159 4.10603,-3.432911 5.41547,-5.893068 1.34912,-2.499838 2.02566,-5.316498 2.02566,-8.451215 0,-3.134717 -0.73591,-5.954122 -2.20407,-8.453959 -1.42848,-2.499838 -3.37253,-4.461845 -5.83268,-5.890324 -2.46016,-1.468158 -5.25611,-2.204067 -8.39083,-2.204067 z m 66.78079,0 c -3.21408,0 -6.05145,0.715203 -8.5116,2.143682 -2.46016,1.388799 -4.40421,3.332845 -5.83269,5.832683 -1.3888,2.460157 -2.08329,5.318228 -2.08329,8.571985 0,3.214077 0.69449,6.069403 2.08329,8.569241 1.42848,2.460157 3.37253,4.404204 5.83269,5.832682 2.46015,1.388799 5.29752,2.083298 8.5116,2.083298 3.21407,0 6.05144,-0.694499 8.5116,-2.083298 2.46015,-1.428478 4.38349,-3.372525 5.77229,-5.832682 1.3888,-2.499838 2.0833,-5.355164 2.0833,-8.569241 0,-3.253757 -0.7152,-6.111828 -2.14368,-8.571985 -1.3888,-2.499838 -3.31214,-4.443884 -5.7723,-5.832683 -2.46016,-1.428479 -5.27682,-2.143682 -8.45121,-2.143682 z m 41.78122,0 c -3.09504,0 -5.87029,0.735909 -8.33044,2.204067 -2.46016,1.428479 -4.40695,3.390486 -5.83543,5.890324 -1.42848,2.499837 -2.16165,5.319242 -2.20133,8.453959 v 27.140503 c 0,0.872959 0.2789,1.588163 0.83442,2.143682 0.5952,0.5952 1.32837,0.892058 2.20132,0.892058 0.91264,0 1.64581,-0.296858 2.20133,-0.892058 0.55552,-0.555519 0.83441,-1.270723 0.83441,-2.143682 v -16.07076 c 1.3888,1.666558 3.05395,2.996184 4.99827,3.988183 1.984,0.952319 4.14757,1.427292 6.48869,1.427292 2.89664,0 5.49651,-0.71246 7.79795,-2.140938 2.30144,-1.468159 4.10604,-3.432911 5.41548,-5.893068 1.34912,-2.499838 2.02291,-5.316498 2.02291,-8.451215 0,-3.134717 -0.73317,-5.954122 -2.20132,-8.453959 -1.42848,-2.499838 -3.37253,-4.461845 -5.83269,-5.890324 -2.46015,-1.468158 -5.25885,-2.204067 -8.39357,-2.204067 z m 39.87908,0 c -3.13472,0 -5.91271,0.715203 -8.33319,2.143682 -2.42047,1.388799 -4.32311,3.332845 -5.71191,5.832683 -1.34912,2.460157 -2.02566,5.318228 -2.02566,8.571985 0,3.214077 0.71521,6.069403 2.14369,8.569241 1.46816,2.460157 3.47157,4.404204 6.01109,5.832682 2.5792,1.388799 5.5146,2.083298 8.80804,2.083298 1.82528,0 3.73066,-0.335525 5.71466,-1.010084 2.02367,-0.674559 3.70953,-1.547172 5.05865,-2.618531 0.67456,-0.51584 0.99212,-1.133006 0.95244,-1.847245 -0.0397,-0.71424 -0.39591,-1.367327 -1.07047,-1.962527 -0.51584,-0.436479 -1.13026,-0.635299 -1.8445,-0.595619 -0.67456,0 -1.30969,0.21678 -1.90489,0.65326 -0.79359,0.595199 -1.84432,1.132289 -3.15376,1.608448 -1.26976,0.43648 -2.52205,0.653261 -3.75213,0.653261 -2.26176,0 -4.26518,-0.495679 -6.0111,-1.487678 -1.74591,-0.991999 -3.11421,-2.339585 -4.1062,-4.045823 -0.65796,-1.131681 -1.01635,-2.408235 -1.23791,-3.749386 h 22.54573 c 0.79359,0 1.44943,-0.240231 1.96527,-0.71639 0.51584,-0.51584 0.77403,-1.150967 0.77403,-1.904886 0,-3.134717 -0.59646,-5.892005 -1.78686,-8.272803 -1.15072,-2.420478 -2.83658,-4.305153 -5.05865,-5.654271 -2.22208,-1.388799 -4.88133,-2.083297 -7.97637,-2.083297 z m 178.02446,0 c -3.09504,0 -5.89373,0.735909 -8.39357,2.204067 -2.46016,1.428479 -4.42217,3.390486 -5.89033,5.890324 -1.42847,2.499837 -2.14368,5.319242 -2.14368,8.453959 0,3.134717 0.65583,5.951377 1.96527,8.451215 1.34912,2.460157 3.17442,4.424909 5.47586,5.893068 2.30144,1.428478 4.89857,2.140938 7.79521,2.140938 2.89664,0 5.49652,-0.71246 7.79796,-2.140938 1.42865,-0.911384 2.64261,-2.038526 3.689,-3.332178 v 2.258964 c 0,0.872959 0.27889,1.608869 0.83441,2.204068 0.5952,0.55552 1.32837,0.831672 2.20133,0.831672 0.87295,0 1.58816,-0.276152 2.14368,-0.831672 0.5952,-0.595199 0.89206,-1.331109 0.89206,-2.204068 V 47.533402 c 0,-3.134717 -0.73317,-5.954122 -2.20133,-8.453959 -1.42848,-2.499838 -3.37252,-4.461845 -5.83268,-5.890324 -2.46016,-1.468158 -5.23815,-2.204067 -8.33319,-2.204067 z m 41.78397,0 c -3.09504,0 -5.87303,0.735909 -8.33319,2.204067 -2.46016,1.428479 -4.4042,3.390486 -5.83268,5.890324 -1.42848,2.499837 -2.16439,5.319242 -2.20407,8.453959 v 27.140503 c 0,0.872959 0.2789,1.588163 0.83442,2.143682 0.5952,0.5952 1.32836,0.892058 2.20132,0.892058 0.91264,0 1.64855,-0.296858 2.20407,-0.892058 0.55552,-0.555519 0.83167,-1.270723 0.83167,-2.143682 v -16.07076 c 1.3888,1.666558 3.05669,2.996184 5.00101,3.988183 1.984,0.952319 4.14483,1.427292 6.48594,1.427292 2.89664,0 5.49652,-0.71246 7.79796,-2.140938 2.30144,-1.468159 4.10603,-3.432911 5.41547,-5.893068 1.34912,-2.499838 2.02566,-5.316498 2.02566,-8.451215 0,-3.134717 -0.73591,-5.954122 -2.20407,-8.453959 -1.42848,-2.499838 -3.37252,-4.461845 -5.83268,-5.890324 -2.46016,-1.468158 -5.25611,-2.204067 -8.39083,-2.204067 z m -146.39073,0.225072 c -0.35712,0.0099 -0.72371,0.0938 -1.10067,0.252521 -0.75392,0.31744 -1.291,0.833824 -1.60844,1.548063 -0.27776,0.674559 -0.21565,1.387018 0.18115,2.140938 l 13.37263,25.405794 -5.93424,13.402819 c -0.7936,1.706238 -0.31588,2.955786 1.43004,3.749386 0.55551,0.238079 1.03049,0.356823 1.42729,0.356823 1.07136,0 1.84593,-0.614422 2.32209,-1.844501 l 18.2117,-40.94955 c 0.79359,-1.745919 0.29792,-2.998212 -1.48768,-3.752131 -1.70624,-0.714239 -2.95579,-0.236522 -3.74939,1.430037 l -9.5656,21.609746 -10.91055,-21.670132 c -0.35712,-0.753919 -0.87075,-1.249597 -1.54531,-1.487677 -0.33728,-0.13888 -0.6859,-0.202056 -1.04302,-0.192136 z m -73.4177,4.893965 c 1.984,0 3.66985,0.457012 5.05865,1.369651 1.3888,0.912639 2.46023,2.162187 3.21415,3.749385 0.53071,1.089343 0.82232,2.325735 0.99911,3.63136 h -19.7131 c 0.20454,-1.121325 0.50438,-2.185715 0.97715,-3.153766 0.83328,-1.745918 2.04416,-3.116954 3.63136,-4.108953 1.62688,-0.991999 3.57092,-1.487677 5.83268,-1.487677 z m -148.44109,0.238796 c 2.02368,0 3.82827,0.495679 5.41547,1.487678 1.5872,0.952319 2.83675,2.281944 3.74939,3.988182 0.95232,1.666559 1.42729,3.571939 1.42729,5.714657 0,2.103038 -0.47497,4.005674 -1.42729,5.711912 -0.91264,1.666559 -2.16219,2.996184 -3.74939,3.988183 -1.5872,0.952319 -3.39179,1.430036 -5.41547,1.430036 -1.984,0 -3.79134,-0.477717 -5.41822,-1.430036 -1.5872,-0.991999 -2.83675,-2.321624 -3.74939,-3.988183 -0.91264,-1.706238 -1.36965,-3.608874 -1.36965,-5.711912 0,-2.142718 0.45701,-4.048098 1.36965,-5.714657 0.91264,-1.706238 2.16219,-3.035863 3.74939,-3.988182 1.62688,-0.991999 3.43422,-1.487678 5.41822,-1.487678 z m 66.78079,0 c 2.06335,0 3.88866,0.474973 5.47586,1.427292 1.58719,0.952319 2.81604,2.281945 3.689,3.988183 0.91264,1.666558 1.36965,3.592644 1.36965,5.775042 0,2.182398 -0.45701,4.105739 -1.36965,5.772298 -0.87296,1.666558 -2.10181,2.975478 -3.689,3.927797 -1.5872,0.952319 -3.41251,1.430036 -5.47586,1.430036 -2.06336,0 -3.88867,-0.477717 -5.47586,-1.430036 -1.5872,-0.952319 -2.83675,-2.261239 -3.74939,-3.927797 -0.91264,-1.666559 -1.36965,-3.5899 -1.36965,-5.772298 0,-2.182398 0.45701,-4.108484 1.36965,-5.775042 0.91264,-1.706238 2.16219,-3.035864 3.74939,-3.988183 1.58719,-0.952319 3.4125,-1.427292 5.47586,-1.427292 z m 41.78122,0 c 2.02368,0 3.83102,0.495679 5.41822,1.487678 1.5872,0.952319 2.83674,2.281944 3.74938,3.988182 0.95232,1.666559 1.4273,3.571939 1.4273,5.714657 0,2.103038 -0.47498,4.005674 -1.4273,5.711912 -0.91264,1.666559 -2.16218,2.996184 -3.74938,3.988183 -1.5872,0.952319 -3.39454,1.430036 -5.41822,1.430036 -1.984,0 -3.7886,-0.477717 -5.41548,-1.430036 -1.58719,-0.991999 -2.83674,-2.321624 -3.74938,-3.988183 -0.91264,-1.706238 -1.36965,-3.608874 -1.36965,-5.711912 0,-2.142718 0.45701,-4.048098 1.36965,-5.714657 0.91264,-1.706238 2.16219,-3.035863 3.74938,-3.988182 1.62688,-0.991999 3.43148,-1.487678 5.41548,-1.487678 z m 217.90354,0 c 2.02368,0 3.82828,0.495679 5.41548,1.487678 1.58719,0.952319 2.83674,2.281944 3.74938,3.988182 0.91264,1.666559 1.36965,3.571939 1.36965,5.714657 0,2.103038 -0.45701,4.005674 -1.36965,5.711912 -0.91264,1.666559 -2.16219,2.996184 -3.74938,3.988183 -1.5872,0.952319 -3.3918,1.430036 -5.41548,1.430036 -1.984,0 -3.78859,-0.477717 -5.41547,-1.430036 -1.5872,-0.991999 -2.85746,-2.321624 -3.80977,-3.988183 -0.91264,-1.706238 -1.36966,-3.608874 -1.36966,-5.711912 0,-2.142718 0.45702,-4.048098 1.36966,-5.714657 0.95231,-1.706238 2.22257,-3.035863 3.80977,-3.988182 1.62688,-0.991999 3.43147,-1.487678 5.41547,-1.487678 z m 41.78397,0 c 2.02368,0 3.82828,0.495679 5.41547,1.487678 1.5872,0.952319 2.83675,2.281944 3.74939,3.988182 0.95232,1.666559 1.43004,3.571939 1.43004,5.714657 0,2.103038 -0.47772,4.005674 -1.43004,5.711912 -0.91264,1.666559 -2.16219,2.996184 -3.74939,3.988183 -1.58719,0.952319 -3.39179,1.430036 -5.41547,1.430036 -1.984,0 -3.79134,-0.477717 -5.41822,-1.430036 -1.5872,-0.991999 -2.83675,-2.321624 -3.74939,-3.988183 -0.91264,-1.706238 -1.36965,-3.608874 -1.36965,-5.711912 0,-2.142718 0.45701,-4.048098 1.36965,-5.714657 0.91264,-1.706238 2.16219,-3.035863 3.74939,-3.988182 1.62688,-0.991999 3.43422,-1.487678 5.41822,-1.487678 z"
       transform="translate(0.81549487,-18.659001)" />
    <path
       d="m 46.082241,66.734663 c -8.5,0 -16.7,-3.7 -22.3,-10.6 -4.4,-5.4 -8.3,-10 -11.6,-13.8 -3.6999989,-4.2 -5.2999989,-9.7 -4.3999989,-15.2 0.9,-5.5 4.0999989,-10.3 8.9999989,-13.100001 v 0 l 39,-22.6999986 c 5.3,-3.1000004 11.7,-3.3000004 17.2,-0.8 5.5,2.6 9.4,7.6999994 10.4,13.6999995 l 5,30.4000001 c 1.3,7.9 -2.6,15.7 -9.7,19.4 -5.1,2.7 -12,6 -20.4,9.9 -3.9,1.9 -8.1,2.8 -12.2,2.8 z m -27.4,-49.3 c -3.8,2.2 -6.3,5.9 -7,10.2 -0.7,4.3 0.6,8.7 3.5,11.9 3.4,3.8 7.3,8.5 11.7,13.9 7.2,8.8 19.4,11.6 29.7,6.8 8.3,-3.9 15.1,-7.2 20.2,-9.9 5.6,-2.9 8.6,-9 7.6,-15.2 l -5,-30.4000001 c -0.8,-4.80000005 -3.8,-8.7 -8.1,-10.6999995 -4.4,-2.1 -9.3,-1.8 -13.5,0.6 z"
       id="path25"
       style="fill:#ff7f2a;stroke-width:1.24;stroke-dasharray:none"
       clip-path="none" />
    <rect
       style="fill:none;stroke-width:1.40533"
       id="rect6"
       width="496.36383"
       height="83.062157"
       x="5.0419412"
       y="5.3085256"
       ry="26.729925" />
  </g>
</svg>
